<svg width="40" height="40" viewBox="0 0 40 40" fill="none" xmlns="http://www.w3.org/2000/svg">
<path d="M20.5341 13C19.5793 13.9548 19.0429 15.2497 19.0429 16.6C19.0429 17.9503 19.5793 19.2452 20.5341 20.2C21.4889 21.1548 22.7838 21.6912 24.1341 21.6912C25.4844 21.6912 26.7793 21.1548 27.7341 20.2C27.7341 21.624 27.3118 23.0161 26.5207 24.2001C25.7295 25.3841 24.6051 26.307 23.2894 26.8519C21.9738 27.3969 20.5261 27.5395 19.1295 27.2617C17.7328 26.9838 16.4499 26.2981 15.4429 25.2912C14.436 24.2842 13.7503 23.0013 13.4725 21.6047C13.1946 20.208 13.3372 18.7603 13.8822 17.4447C14.4271 16.1291 15.35 15.0046 16.534 14.2134C17.718 13.4223 19.1101 13 20.5341 13Z" stroke="#FAFAFA" stroke-width="2" stroke-linecap="round" stroke-linejoin="round"/>
</svg>
