<svg width="40" height="40" viewBox="0 0 40 40" fill="none" xmlns="http://www.w3.org/2000/svg">
<path d="M20.5351 13C19.5803 13.9548 19.0439 15.2497 19.0439 16.6C19.0439 17.9503 19.5803 19.2452 20.5351 20.2C21.4899 21.1548 22.7848 21.6912 24.1351 21.6912C25.4853 21.6912 26.7803 21.1548 27.7351 20.2C27.7351 21.624 27.3128 23.0161 26.5217 24.2001C25.7305 25.3841 24.606 26.307 23.2904 26.8519C21.9748 27.3969 20.5271 27.5395 19.1304 27.2617C17.7338 26.9838 16.4509 26.2981 15.4439 25.2912C14.437 24.2842 13.7512 23.0013 13.4734 21.6047C13.1956 20.208 13.3382 18.7603 13.8832 17.4447C14.4281 16.1291 15.3509 15.0046 16.535 14.2134C17.719 13.4223 19.1111 13 20.5351 13Z" stroke="#FAFAFA" stroke-width="2" stroke-linecap="round" stroke-linejoin="round"/>
</svg>
