<svg width="41" height="40" viewBox="0 0 41 40" fill="none" xmlns="http://www.w3.org/2000/svg">
<path d="M21.0296 13C20.0748 13.9548 19.5384 15.2497 19.5384 16.6C19.5384 17.9503 20.0748 19.2452 21.0296 20.2C21.9844 21.1548 23.2793 21.6912 24.6296 21.6912C25.9799 21.6912 27.2748 21.1548 28.2296 20.2C28.2296 21.624 27.8073 23.0161 27.0162 24.2001C26.225 25.3841 25.1005 26.307 23.7849 26.8519C22.4693 27.3969 21.0216 27.5395 19.6249 27.2617C18.2283 26.9838 16.9454 26.2981 15.9384 25.2912C14.9315 24.2842 14.2458 23.0013 13.9679 21.6047C13.6901 20.208 13.8327 18.7603 14.3777 17.4447C14.9226 16.1291 15.8455 15.0046 17.0295 14.2134C18.2135 13.4223 19.6056 13 21.0296 13Z" stroke="#FAFAFA" stroke-width="2" stroke-linecap="round" stroke-linejoin="round"/>
</svg>
