<svg width="17" height="17" viewBox="0 0 17 17" fill="none" xmlns="http://www.w3.org/2000/svg">
<g filter="url(#filter0_b_71_2089)">
<path d="M13.6504 11.3832V5.38715C13.6504 5.03376 13.51 4.69484 13.2602 4.44496C13.0103 4.19507 12.6714 4.05469 12.318 4.05469H4.32317C3.96978 4.05469 3.63086 4.19507 3.38097 4.44496C3.13109 4.69484 2.9907 5.03376 2.9907 5.38715V11.3832M13.6504 11.3832H2.9907H13.6504ZM13.6504 11.3832L14.5032 13.0821C14.5546 13.1841 14.5789 13.2975 14.5738 13.4115C14.5688 13.5255 14.5345 13.6363 14.4743 13.7333C14.4141 13.8303 14.33 13.9102 14.2301 13.9653C14.1302 14.0204 14.0177 14.049 13.9036 14.0482H2.73754C2.6234 14.049 2.51098 14.0204 2.41104 13.9653C2.31111 13.9102 2.22702 13.8303 2.16683 13.7333C2.10663 13.6363 2.07237 13.5255 2.06731 13.4115C2.06225 13.2975 2.08656 13.1841 2.13793 13.0821L2.9907 11.3832" fill="white" fill-opacity="0.1"/>
<path d="M13.6504 11.3832V5.38715C13.6504 5.03376 13.51 4.69484 13.2602 4.44496C13.0103 4.19507 12.6714 4.05469 12.318 4.05469H4.32317C3.96978 4.05469 3.63086 4.19507 3.38097 4.44496C3.13109 4.69484 2.9907 5.03376 2.9907 5.38715V11.3832M13.6504 11.3832H2.9907M13.6504 11.3832L14.5032 13.0821C14.5546 13.1841 14.5789 13.2975 14.5738 13.4115C14.5688 13.5255 14.5345 13.6363 14.4743 13.7333C14.4141 13.8303 14.33 13.9102 14.2301 13.9653C14.1302 14.0204 14.0177 14.049 13.9036 14.0482H2.73754C2.6234 14.049 2.51098 14.0204 2.41104 13.9653C2.31111 13.9102 2.22702 13.8303 2.16683 13.7333C2.10663 13.6363 2.07237 13.5255 2.06731 13.4115C2.06225 13.2975 2.08656 13.1841 2.13793 13.0821L2.9907 11.3832" stroke="url(#paint0_linear_71_2089)" stroke-opacity="0.45" stroke-width="2" stroke-linecap="round" stroke-linejoin="round"/>
</g>
<defs>
<filter id="filter0_b_71_2089" x="-13.3333" y="-11.3453" width="43.3078" height="40.7937" filterUnits="userSpaceOnUse" color-interpolation-filters="sRGB">
<feFlood flood-opacity="0" result="BackgroundImageFix"/>
<feGaussianBlur in="BackgroundImageFix" stdDeviation="7.2"/>
<feComposite in2="SourceAlpha" operator="in" result="effect1_backgroundBlur_71_2089"/>
<feBlend mode="normal" in="SourceGraphic" in2="effect1_backgroundBlur_71_2089" result="shape"/>
</filter>
<linearGradient id="paint0_linear_71_2089" x1="8.32057" y1="4.05469" x2="8.32057" y2="14.0482" gradientUnits="userSpaceOnUse">
<stop stop-color="#4FABFF"/>
<stop offset="0.505104" stop-color="#C1FBFF"/>
<stop offset="1" stop-color="#B9DDFF"/>
</linearGradient>
</defs>
</svg>
