<svg width="25" height="25" viewBox="0 0 25 25" fill="none" xmlns="http://www.w3.org/2000/svg">
<g clip-path="url(#clip0_55_288)">
<path d="M21.2414 4.47178C19.688 3.74498 18.027 3.21678 16.2906 2.91602C16.0773 3.30158 15.8281 3.82018 15.6564 4.23273C13.8104 3.95512 11.9815 3.95512 10.1695 4.23273C9.99774 3.82018 9.74293 3.30158 9.52776 2.91602C7.78939 3.21678 6.12652 3.74692 4.57313 4.47563C1.43992 9.21032 0.590554 13.8274 1.01524 18.3789C3.09335 19.9308 5.10728 20.8735 7.08723 21.4904C7.5761 20.8176 8.01209 20.1024 8.38769 19.3486C7.67235 19.0768 6.9872 18.7414 6.33981 18.352C6.51156 18.2247 6.67956 18.0917 6.84187 17.9548C10.7905 19.8017 15.0807 19.8017 18.9821 17.9548C19.1463 18.0917 19.3143 18.2247 19.4842 18.352C18.8349 18.7433 18.1478 19.0787 17.4325 19.3506C17.8081 20.1024 18.2422 20.8196 18.733 21.4923C20.7148 20.8754 22.7306 19.9328 24.8087 18.3789C25.307 13.1026 23.9575 8.52787 21.2414 4.47178ZM8.92564 15.5798C7.74031 15.5798 6.76825 14.4732 6.76825 13.1257C6.76825 11.7781 7.71955 10.6697 8.92564 10.6697C10.1318 10.6697 11.1038 11.7762 11.083 13.1257C11.0849 14.4732 10.1318 15.5798 8.92564 15.5798ZM16.8983 15.5798C15.713 15.5798 14.7409 14.4732 14.7409 13.1257C14.7409 11.7781 15.6922 10.6697 16.8983 10.6697C18.1044 10.6697 19.0765 11.7762 19.0557 13.1257C19.0557 14.4732 18.1044 15.5798 16.8983 15.5798Z" fill="#9CA3AF"/>
</g>
<defs>
<clipPath id="clip0_55_288">
<rect width="23.9974" height="23.9974" fill="white" transform="translate(0.91333 0.244629)"/>
</clipPath>
</defs>
</svg>
