<svg width="16" height="17" viewBox="0 0 16 17" fill="none" xmlns="http://www.w3.org/2000/svg">
<g clip-path="url(#clip0_152_365)">
<g filter="url(#filter0_b_152_365)">
<path d="M13.3172 11.3832V5.38715C13.3172 5.03376 13.1768 4.69484 12.9269 4.44496C12.677 4.19507 12.3381 4.05469 11.9847 4.05469H3.98992C3.63653 4.05469 3.29761 4.19507 3.04772 4.44496C2.79784 4.69484 2.65745 5.03376 2.65745 5.38715V11.3832M13.3172 11.3832H2.65745H13.3172ZM13.3172 11.3832L14.17 13.0821C14.2213 13.1841 14.2456 13.2975 14.2406 13.4115C14.2355 13.5255 14.2012 13.6363 14.1411 13.7333C14.0809 13.8303 13.9968 13.9102 13.8968 13.9653C13.7969 14.0204 13.6845 14.049 13.5703 14.0482H2.40428C2.29015 14.049 2.17773 14.0204 2.07779 13.9653C1.97786 13.9102 1.89376 13.8303 1.83357 13.7333C1.77338 13.6363 1.73911 13.5255 1.73405 13.4115C1.72899 13.2975 1.75331 13.1841 1.80467 13.0821L2.65745 11.3832" fill="white" fill-opacity="0.1"/>
<path d="M13.3172 11.3832V5.38715C13.3172 5.03376 13.1768 4.69484 12.9269 4.44496C12.677 4.19507 12.3381 4.05469 11.9847 4.05469H3.98992C3.63653 4.05469 3.29761 4.19507 3.04772 4.44496C2.79784 4.69484 2.65745 5.03376 2.65745 5.38715V11.3832M13.3172 11.3832H2.65745M13.3172 11.3832L14.17 13.0821C14.2213 13.1841 14.2456 13.2975 14.2406 13.4115C14.2355 13.5255 14.2012 13.6363 14.1411 13.7333C14.0809 13.8303 13.9968 13.9102 13.8968 13.9653C13.7969 14.0204 13.6845 14.049 13.5703 14.0482H2.40428C2.29015 14.049 2.17773 14.0204 2.07779 13.9653C1.97786 13.9102 1.89376 13.8303 1.83357 13.7333C1.77338 13.6363 1.73911 13.5255 1.73405 13.4115C1.72899 13.2975 1.75331 13.1841 1.80467 13.0821L2.65745 11.3832" stroke="url(#paint0_linear_152_365)" stroke-opacity="0.45" stroke-width="2" stroke-linecap="round" stroke-linejoin="round"/>
</g>
</g>
<defs>
<filter id="filter0_b_152_365" x="-13.6666" y="-11.3453" width="43.3078" height="40.7937" filterUnits="userSpaceOnUse" color-interpolation-filters="sRGB">
<feFlood flood-opacity="0" result="BackgroundImageFix"/>
<feGaussianBlur in="BackgroundImageFix" stdDeviation="7.2"/>
<feComposite in2="SourceAlpha" operator="in" result="effect1_backgroundBlur_152_365"/>
<feBlend mode="normal" in="SourceGraphic" in2="effect1_backgroundBlur_152_365" result="shape"/>
</filter>
<linearGradient id="paint0_linear_152_365" x1="7.98731" y1="4.05469" x2="7.98731" y2="14.0482" gradientUnits="userSpaceOnUse">
<stop stop-color="#4FABFF"/>
<stop offset="0.505104" stop-color="#C1FBFF"/>
<stop offset="1" stop-color="#B9DDFF"/>
</linearGradient>
<clipPath id="clip0_152_365">
<rect width="15.9896" height="15.9896" fill="white" transform="translate(-0.0078125 0.723633)"/>
</clipPath>
</defs>
</svg>
