<svg width="25" height="25" viewBox="0 0 25 25" fill="none" xmlns="http://www.w3.org/2000/svg">
<path fill-rule="evenodd" clip-rule="evenodd" d="M12.4146 2.98145C6.89155 2.98145 2.41455 7.46545 2.41455 12.9984C2.41455 17.4234 5.27955 21.1784 9.25355 22.5024C9.75355 22.5944 9.93555 22.2854 9.93555 22.0194C9.93555 21.7824 9.92755 21.1514 9.92255 20.3164C7.14055 20.9214 6.55355 18.9734 6.55355 18.9734C6.09955 17.8154 5.44355 17.5074 5.44355 17.5074C4.53555 16.8874 5.51255 16.8994 5.51255 16.8994C6.51555 16.9694 7.04355 17.9314 7.04355 17.9314C7.93555 19.4614 9.38455 19.0194 9.95355 18.7634C10.0456 18.1164 10.3036 17.6754 10.5896 17.4254C8.36955 17.1724 6.03455 16.3124 6.03455 12.4744C6.03455 11.3814 6.42455 10.4864 7.06355 9.78645C6.96055 9.53345 6.61755 8.51445 7.16155 7.13645C7.16155 7.13645 8.00155 6.86645 9.91155 8.16245C10.7273 7.93996 11.569 7.82664 12.4146 7.82545C13.2646 7.82945 14.1196 7.94045 14.9186 8.16245C16.8276 6.86645 17.6656 7.13545 17.6656 7.13545C18.2115 8.51445 17.8676 9.53345 17.7656 9.78645C18.4056 10.4864 18.7936 11.3814 18.7936 12.4744C18.7936 16.3224 16.4546 17.1694 14.2276 17.4174C14.5866 17.7264 14.9056 18.3374 14.9056 19.2724C14.9056 20.6104 14.8936 21.6914 14.8936 22.0194C14.8936 22.2874 15.0736 22.5994 15.5816 22.5014C17.5728 21.8336 19.3039 20.5568 20.53 18.8515C21.7562 17.1462 22.4154 15.0988 22.4146 12.9984C22.4146 7.46545 17.9366 2.98145 12.4146 2.98145Z" fill="#9CA3AF"/>
</svg>
