<svg width="25" height="25" viewBox="0 0 25 25" fill="none" xmlns="http://www.w3.org/2000/svg">
<path d="M8.70455 21.2324C16.2516 21.2324 20.3796 14.9794 20.3796 9.5574C20.3796 9.3794 20.3795 9.2024 20.3675 9.0274C21.1707 8.44593 21.8639 7.72602 22.4146 6.9014C21.6656 7.23341 20.8711 7.45116 20.0576 7.5474C20.9142 7.03446 21.5553 6.22775 21.8616 5.2774C21.0563 5.75529 20.1753 6.09213 19.2565 6.2734C18.6379 5.61517 17.8196 5.17924 16.9282 5.03311C16.0368 4.88698 15.1221 5.0388 14.3257 5.46507C13.5293 5.89134 12.8956 6.56828 12.5228 7.39106C12.1501 8.21385 12.0589 9.13659 12.2636 10.0164C10.6321 9.93464 9.03615 9.51073 7.5792 8.77217C6.12224 8.03361 4.83688 6.99693 3.80655 5.7294C3.28187 6.63261 3.12114 7.70182 3.35709 8.71937C3.59303 9.73691 4.20792 10.6263 5.07655 11.2064C4.42381 11.1875 3.78518 11.0119 3.21455 10.6944V10.7464C3.21494 11.6937 3.54295 12.6117 4.14295 13.3448C4.74295 14.0778 5.57802 14.5808 6.50655 14.7684C5.90236 14.9331 5.26844 14.9571 4.65355 14.8384C4.91571 15.6539 5.42623 16.367 6.11368 16.878C6.80113 17.389 7.63112 17.6724 8.48755 17.6884C7.63667 18.357 6.66234 18.8512 5.62028 19.1429C4.57822 19.4346 3.48887 19.5181 2.41455 19.3884C4.29116 20.5927 6.47474 21.2315 8.70455 21.2284" fill="#9CA3AF"/>
</svg>
