<svg width="25" height="25" viewBox="0 0 25 25" fill="none" xmlns="http://www.w3.org/2000/svg">
<g clip-path="url(#clip0_71_2311)">
<path d="M20.7448 5.20925C19.1913 4.48238 17.5301 3.95412 15.7934 3.65332C15.5802 4.03893 15.331 4.55759 15.1592 4.97017C13.313 4.69254 11.4839 4.69254 9.67171 4.97017C9.49994 4.55759 9.2451 4.03893 9.02991 3.65332C7.29136 3.95412 5.62831 4.48432 4.07474 5.2131C0.941194 9.94831 0.0917396 14.5659 0.516467 19.1179C2.5948 20.67 4.60896 21.6128 6.58913 22.2297C7.07804 21.5569 7.51408 20.8416 7.88973 20.0877C7.1743 19.8159 6.48908 19.4804 5.84162 19.0909C6.01339 18.9637 6.18141 18.8306 6.34373 18.6938C10.2927 20.5408 14.5834 20.5408 18.4853 18.6938C18.6495 18.8306 18.8175 18.9637 18.9874 19.0909C18.338 19.4823 17.6509 19.8178 16.9355 20.0897C17.3111 20.8416 17.7453 21.5588 18.2361 22.2317C20.2182 21.6147 22.2342 20.6719 24.3125 19.1179C24.8109 13.841 23.4612 9.26578 20.7448 5.20925ZM8.42773 16.3185C7.24227 16.3185 6.2701 15.2118 6.2701 13.8641C6.2701 12.5164 7.22151 11.4078 8.42773 11.4078C9.63397 11.4078 10.6061 12.5145 10.5854 13.8641C10.5872 15.2118 9.63397 16.3185 8.42773 16.3185ZM16.4013 16.3185C15.2158 16.3185 14.2437 15.2118 14.2437 13.8641C14.2437 12.5164 15.195 11.4078 16.4013 11.4078C17.6075 11.4078 18.5797 12.5145 18.5589 13.8641C18.5589 15.2118 17.6075 16.3185 16.4013 16.3185Z" fill="#9CA3AF"/>
</g>
<defs>
<clipPath id="clip0_71_2311">
<rect width="24" height="24" fill="white" transform="translate(0.414551 0.981445)"/>
</clipPath>
</defs>
</svg>
