<svg width="16" height="17" viewBox="0 0 16 17" fill="none" xmlns="http://www.w3.org/2000/svg">
<g clip-path="url(#clip0_152_352)">
<g filter="url(#filter0_b_152_352)">
<path d="M7.66233 13.6689C9.07589 13.6689 10.4316 13.1074 11.4311 12.1079C12.4307 11.1083 12.9922 9.75265 12.9922 8.33908C12.9922 6.92552 12.4307 5.56985 11.4311 4.5703C10.4316 3.57076 9.07589 3.00922 7.66233 3.00922C6.24876 3.00922 4.89309 3.57076 3.89355 4.5703C2.894 5.56985 2.33247 6.92552 2.33247 8.33908C2.33247 9.75265 2.894 11.1083 3.89355 12.1079C4.89309 13.1074 6.24876 13.6689 7.66233 13.6689Z" fill="url(#paint0_linear_152_352)" fill-opacity="0.15"/>
<path d="M7.66233 9.67155C8.01572 9.67155 8.35464 9.53116 8.60452 9.28128C8.85441 9.03139 8.99479 8.69248 8.99479 8.33908C8.99479 7.98569 8.85441 7.64677 8.60452 7.39689C8.35464 7.147 8.01572 7.00662 7.66233 7.00662C7.30893 7.00662 6.97002 7.147 6.72013 7.39689C6.47025 7.64677 6.32986 7.98569 6.32986 8.33908C6.32986 8.69248 6.47025 9.03139 6.72013 9.28128C6.97002 9.53116 7.30893 9.67155 7.66233 9.67155Z" fill="url(#paint1_linear_152_352)" fill-opacity="0.15"/>
<path d="M7.66233 1.67676V3.00922V1.67676Z" fill="url(#paint2_linear_152_352)" fill-opacity="0.15"/>
<path d="M7.66233 15.0014V13.6689V15.0014Z" fill="url(#paint3_linear_152_352)" fill-opacity="0.15"/>
<path d="M10.9935 14.1087L10.3273 12.9561L10.9935 14.1087Z" fill="url(#paint4_linear_152_352)" fill-opacity="0.15"/>
<path d="M6.99609 7.1865L4.33116 2.56951L6.99609 7.1865Z" fill="url(#paint5_linear_152_352)" fill-opacity="0.15"/>
<path d="M13.4319 11.6702L12.2793 11.004L13.4319 11.6702Z" fill="url(#paint6_linear_152_352)" fill-opacity="0.15"/>
<path d="M1.89275 5.00792L3.04533 5.67415L1.89275 5.00792Z" fill="url(#paint7_linear_152_352)" fill-opacity="0.15"/>
<path d="M8.99479 8.33908H14.3247H8.99479Z" fill="url(#paint8_linear_152_352)" fill-opacity="0.15"/>
<path d="M1 8.33908H2.33247H1Z" fill="url(#paint9_linear_152_352)" fill-opacity="0.15"/>
<path d="M13.4319 5.00792L12.2793 5.67415L13.4319 5.00792Z" fill="url(#paint10_linear_152_352)" fill-opacity="0.15"/>
<path d="M1.89275 11.6702L3.04533 11.004L1.89275 11.6702Z" fill="url(#paint11_linear_152_352)" fill-opacity="0.15"/>
<path d="M10.9935 2.56951L10.3273 3.72209L10.9935 2.56951Z" fill="url(#paint12_linear_152_352)" fill-opacity="0.15"/>
<path d="M6.99609 9.49167L4.33116 14.1087L6.99609 9.49167Z" fill="url(#paint13_linear_152_352)" fill-opacity="0.15"/>
<path d="M7.66233 13.6689C9.07589 13.6689 10.4316 13.1074 11.4311 12.1079C12.4307 11.1083 12.9922 9.75265 12.9922 8.33908C12.9922 6.92552 12.4307 5.56985 11.4311 4.5703C10.4316 3.57076 9.07589 3.00922 7.66233 3.00922M7.66233 13.6689C6.24876 13.6689 4.89309 13.1074 3.89355 12.1079C2.894 11.1083 2.33247 9.75265 2.33247 8.33908M7.66233 13.6689V15.0014M7.66233 3.00922C6.24876 3.00922 4.89309 3.57076 3.89355 4.5703C2.894 5.56985 2.33247 6.92552 2.33247 8.33908M7.66233 3.00922V1.67676M2.33247 8.33908H1M8.99479 8.33908C8.99479 8.69248 8.85441 9.03139 8.60452 9.28128C8.35464 9.53116 8.01572 9.67155 7.66233 9.67155C7.30893 9.67155 6.97002 9.53116 6.72013 9.28128C6.47025 9.03139 6.32986 8.69248 6.32986 8.33908C6.32986 7.98569 6.47025 7.64677 6.72013 7.39689C6.97002 7.147 7.30893 7.00662 7.66233 7.00662C8.01572 7.00662 8.35464 7.147 8.60452 7.39689C8.85441 7.64677 8.99479 7.98569 8.99479 8.33908ZM8.99479 8.33908H14.3247M10.9935 14.1087L10.3273 12.9561M6.99609 7.1865L4.33116 2.56951M13.4319 11.6702L12.2793 11.004M1.89275 5.00792L3.04533 5.67415M13.4319 5.00792L12.2793 5.67415M1.89275 11.6702L3.04533 11.004M10.9935 2.56951L10.3273 3.72209M6.99609 9.49167L4.33116 14.1087" stroke="url(#paint14_linear_152_352)" stroke-opacity="0.42" stroke-width="2" stroke-linecap="round" stroke-linejoin="round"/>
</g>
</g>
<defs>
<filter id="filter0_b_152_352" x="-17.4" y="-16.7232" width="50.1247" height="50.1247" filterUnits="userSpaceOnUse" color-interpolation-filters="sRGB">
<feFlood flood-opacity="0" result="BackgroundImageFix"/>
<feGaussianBlur in="BackgroundImageFix" stdDeviation="8.7"/>
<feComposite in2="SourceAlpha" operator="in" result="effect1_backgroundBlur_152_352"/>
<feBlend mode="normal" in="SourceGraphic" in2="effect1_backgroundBlur_152_352" result="shape"/>
</filter>
<linearGradient id="paint0_linear_152_352" x1="4" y1="1.67676" x2="11.5" y2="14.6768" gradientUnits="userSpaceOnUse">
<stop stop-color="#4FABFF"/>
<stop offset="0.460102" stop-color="#E4E4A7"/>
<stop offset="1" stop-color="#B9DDFF"/>
</linearGradient>
<linearGradient id="paint1_linear_152_352" x1="4" y1="1.67676" x2="11.5" y2="14.6768" gradientUnits="userSpaceOnUse">
<stop stop-color="#4FABFF"/>
<stop offset="0.460102" stop-color="#E4E4A7"/>
<stop offset="1" stop-color="#B9DDFF"/>
</linearGradient>
<linearGradient id="paint2_linear_152_352" x1="4" y1="1.67676" x2="11.5" y2="14.6768" gradientUnits="userSpaceOnUse">
<stop stop-color="#4FABFF"/>
<stop offset="0.460102" stop-color="#E4E4A7"/>
<stop offset="1" stop-color="#B9DDFF"/>
</linearGradient>
<linearGradient id="paint3_linear_152_352" x1="4" y1="1.67676" x2="11.5" y2="14.6768" gradientUnits="userSpaceOnUse">
<stop stop-color="#4FABFF"/>
<stop offset="0.460102" stop-color="#E4E4A7"/>
<stop offset="1" stop-color="#B9DDFF"/>
</linearGradient>
<linearGradient id="paint4_linear_152_352" x1="4" y1="1.67676" x2="11.5" y2="14.6768" gradientUnits="userSpaceOnUse">
<stop stop-color="#4FABFF"/>
<stop offset="0.460102" stop-color="#E4E4A7"/>
<stop offset="1" stop-color="#B9DDFF"/>
</linearGradient>
<linearGradient id="paint5_linear_152_352" x1="4" y1="1.67676" x2="11.5" y2="14.6768" gradientUnits="userSpaceOnUse">
<stop stop-color="#4FABFF"/>
<stop offset="0.460102" stop-color="#E4E4A7"/>
<stop offset="1" stop-color="#B9DDFF"/>
</linearGradient>
<linearGradient id="paint6_linear_152_352" x1="4" y1="1.67676" x2="11.5" y2="14.6768" gradientUnits="userSpaceOnUse">
<stop stop-color="#4FABFF"/>
<stop offset="0.460102" stop-color="#E4E4A7"/>
<stop offset="1" stop-color="#B9DDFF"/>
</linearGradient>
<linearGradient id="paint7_linear_152_352" x1="4" y1="1.67676" x2="11.5" y2="14.6768" gradientUnits="userSpaceOnUse">
<stop stop-color="#4FABFF"/>
<stop offset="0.460102" stop-color="#E4E4A7"/>
<stop offset="1" stop-color="#B9DDFF"/>
</linearGradient>
<linearGradient id="paint8_linear_152_352" x1="4" y1="1.67676" x2="11.5" y2="14.6768" gradientUnits="userSpaceOnUse">
<stop stop-color="#4FABFF"/>
<stop offset="0.460102" stop-color="#E4E4A7"/>
<stop offset="1" stop-color="#B9DDFF"/>
</linearGradient>
<linearGradient id="paint9_linear_152_352" x1="4" y1="1.67676" x2="11.5" y2="14.6768" gradientUnits="userSpaceOnUse">
<stop stop-color="#4FABFF"/>
<stop offset="0.460102" stop-color="#E4E4A7"/>
<stop offset="1" stop-color="#B9DDFF"/>
</linearGradient>
<linearGradient id="paint10_linear_152_352" x1="4" y1="1.67676" x2="11.5" y2="14.6768" gradientUnits="userSpaceOnUse">
<stop stop-color="#4FABFF"/>
<stop offset="0.460102" stop-color="#E4E4A7"/>
<stop offset="1" stop-color="#B9DDFF"/>
</linearGradient>
<linearGradient id="paint11_linear_152_352" x1="4" y1="1.67676" x2="11.5" y2="14.6768" gradientUnits="userSpaceOnUse">
<stop stop-color="#4FABFF"/>
<stop offset="0.460102" stop-color="#E4E4A7"/>
<stop offset="1" stop-color="#B9DDFF"/>
</linearGradient>
<linearGradient id="paint12_linear_152_352" x1="4" y1="1.67676" x2="11.5" y2="14.6768" gradientUnits="userSpaceOnUse">
<stop stop-color="#4FABFF"/>
<stop offset="0.460102" stop-color="#E4E4A7"/>
<stop offset="1" stop-color="#B9DDFF"/>
</linearGradient>
<linearGradient id="paint13_linear_152_352" x1="4" y1="1.67676" x2="11.5" y2="14.6768" gradientUnits="userSpaceOnUse">
<stop stop-color="#4FABFF"/>
<stop offset="0.460102" stop-color="#E4E4A7"/>
<stop offset="1" stop-color="#B9DDFF"/>
</linearGradient>
<linearGradient id="paint14_linear_152_352" x1="7.66233" y1="1.67676" x2="11.5" y2="14.1768" gradientUnits="userSpaceOnUse">
<stop stop-color="#4FABFF"/>
<stop offset="0.485219" stop-color="#8FC7FB"/>
<stop offset="1" stop-color="#B9DDFF"/>
</linearGradient>
<clipPath id="clip0_152_352">
<rect width="15.9896" height="15.9896" fill="white" transform="translate(-0.0078125 0.788574)"/>
</clipPath>
</defs>
</svg>
