<svg width="25" height="25" viewBox="0 0 25 25" fill="none" xmlns="http://www.w3.org/2000/svg">
<path fill-rule="evenodd" clip-rule="evenodd" d="M12.8334 2.24463C7.31099 2.24463 2.83447 6.72814 2.83447 12.2605C2.83447 16.6851 5.69916 20.4397 9.67273 21.7635C10.1727 21.8555 10.3547 21.5465 10.3547 21.2806C10.3547 21.0436 10.3467 20.4127 10.3417 19.5777C7.55996 20.1827 6.97302 18.2349 6.97302 18.2349C6.51907 17.077 5.86314 16.7691 5.86314 16.7691C4.95524 16.1491 5.93214 16.1611 5.93214 16.1611C6.93503 16.2311 7.46297 17.193 7.46297 17.193C8.35487 18.7228 9.80372 18.2809 10.3727 18.0249C10.4646 17.378 10.7226 16.937 11.0086 16.6871C8.78883 16.4341 6.45408 15.5742 6.45408 11.7366C6.45408 10.6437 6.84404 9.74881 7.48297 9.04889C7.37998 8.79592 7.03702 7.77703 7.58096 6.39918C7.58096 6.39918 8.42087 6.12921 10.3307 7.42507C11.1463 7.20261 11.9879 7.0893 12.8334 7.0881C13.6833 7.0921 14.5382 7.20309 15.3371 7.42507C17.2459 6.12921 18.0838 6.39818 18.0838 6.39818C18.6298 7.77703 18.2858 8.79592 18.1838 9.04889C18.8237 9.74881 19.2117 10.6437 19.2117 11.7366C19.2117 15.5842 16.8729 16.4311 14.6462 16.6791C15.0052 16.988 15.3241 17.599 15.3241 18.5339C15.3241 19.8717 15.3121 20.9526 15.3121 21.2806C15.3121 21.5485 15.4921 21.8605 16 21.7625C17.9911 21.0947 19.722 19.818 20.948 18.113C22.174 16.4079 22.8332 14.3606 22.8323 12.2605C22.8323 6.72814 18.3548 2.24463 12.8334 2.24463Z" fill="#9CA3AF"/>
</svg>
