<svg width="24" height="25" viewBox="0 0 24 25" fill="none" xmlns="http://www.w3.org/2000/svg">
<path d="M8.2815 20.4933C15.8277 20.4933 19.9552 14.241 19.9552 8.8196C19.9552 8.64162 19.9552 8.46464 19.9432 8.28966C20.7463 7.70825 21.4394 6.98841 21.99 6.16389C21.2412 6.49586 20.4467 6.71359 19.6333 6.80982C20.4898 6.29693 21.1309 5.49031 21.4371 4.54007C20.6319 5.0179 19.751 5.35471 18.8324 5.53596C18.2138 4.87779 17.3955 4.44191 16.5042 4.2958C15.6129 4.14968 14.6983 4.30149 13.902 4.72771C13.1057 5.15394 12.4721 5.8308 12.0994 6.6535C11.7266 7.47619 11.6355 8.39883 11.8401 9.27855C10.2089 9.1968 8.61307 8.77293 7.15627 8.03445C5.69947 7.29598 4.41425 6.2594 3.38404 4.99202C2.85941 5.89512 2.6987 6.96422 2.93462 7.98166C3.17054 8.99909 3.78536 9.88836 4.6539 10.4684C4.00123 10.4495 3.36267 10.2739 2.7921 9.95648V10.0085C2.79249 10.9557 3.12046 11.8736 3.7204 12.6065C4.32033 13.3395 5.15531 13.8424 6.08374 14.03C5.47962 14.1947 4.84577 14.2187 4.23094 14.1C4.49308 14.9154 5.00354 15.6285 5.69091 16.1394C6.37829 16.6504 7.20819 16.9337 8.06453 16.9497C7.21374 17.6182 6.23951 18.1124 5.19757 18.4041C4.15562 18.6958 3.06639 18.7792 1.99219 18.6495C3.86859 19.8537 6.05194 20.4924 8.2815 20.4893" fill="#9CA3AF"/>
</svg>
