<svg width="20" height="21" viewBox="0 0 20 21" fill="none" xmlns="http://www.w3.org/2000/svg">
<path d="M18.108 15.3475L11.4414 3.68085C11.296 3.42435 11.0852 3.21101 10.8305 3.06258C10.5757 2.91414 10.2862 2.83594 9.99136 2.83594C9.69654 2.83594 9.40699 2.91414 9.15226 3.06258C8.89753 3.21101 8.68673 3.42435 8.54136 3.68085L1.8747 15.3475C1.72777 15.602 1.65072 15.8908 1.65137 16.1846C1.65202 16.4784 1.73035 16.7669 1.8784 17.0207C2.02646 17.2745 2.23899 17.4847 2.49444 17.6299C2.7499 17.7751 3.0392 17.8502 3.33303 17.8475H16.6664C16.9588 17.8472 17.246 17.77 17.4991 17.6236C17.7522 17.4772 17.9624 17.2668 18.1085 17.0134C18.2545 16.7601 18.3314 16.4728 18.3313 16.1804C18.3312 15.888 18.2542 15.6008 18.108 15.3475Z" stroke="#CA8A04" stroke-width="2" stroke-linecap="round" stroke-linejoin="round"/>
<path d="M10 7.84766V11.181" stroke="#CA8A04" stroke-width="2" stroke-linecap="round" stroke-linejoin="round"/>
<path d="M10 14.5146H10.0083" stroke="#CA8A04" stroke-width="2" stroke-linecap="round" stroke-linejoin="round"/>
</svg>
