<svg width="16" height="17" viewBox="0 0 16 17" fill="none" xmlns="http://www.w3.org/2000/svg">
<g clip-path="url(#clip0_152_359)">
<g filter="url(#filter0_b_152_359)">
<path d="M10.6515 3.08675C10.6515 2.53483 10.2041 2.0874 9.65213 2.0874C9.1002 2.0874 8.65278 2.53483 8.65278 3.08675V6.41791C8.65278 6.96984 9.1002 7.41726 9.65213 7.41726C10.2041 7.41726 10.6515 6.96984 10.6515 6.41791V3.08675Z" fill="white" fill-opacity="0.1"/>
<path d="M12.6502 6.41791V7.41726H13.6495C13.8472 7.41726 14.0404 7.35865 14.2047 7.24884C14.3691 7.13903 14.4972 6.98296 14.5728 6.80035C14.6484 6.61774 14.6682 6.41681 14.6297 6.22295C14.5911 6.0291 14.4959 5.85103 14.3562 5.71127C14.2164 5.57151 14.0383 5.47633 13.8445 5.43777C13.6506 5.39921 13.4497 5.419 13.2671 5.49464C13.0845 5.57027 12.9284 5.69836 12.8186 5.86271C12.7088 6.02705 12.6502 6.22026 12.6502 6.41791Z" fill="white" fill-opacity="0.1"/>
<path d="M7.32031 11.0815C7.32031 10.5296 6.87289 10.0822 6.32096 10.0822C5.76904 10.0822 5.32161 10.5296 5.32161 11.0815V14.4127C5.32161 14.9646 5.76904 15.4121 6.32096 15.4121C6.87289 15.4121 7.32031 14.9646 7.32031 14.4127V11.0815Z" fill="white" fill-opacity="0.1"/>
<path d="M3.32292 11.0815V10.0822H2.32357C2.12592 10.0822 1.9327 10.1408 1.76836 10.2506C1.60402 10.3604 1.47593 10.5165 1.40029 10.6991C1.32465 10.8817 1.30486 11.0827 1.34342 11.2765C1.38198 11.4704 1.47716 11.6484 1.61692 11.7882C1.75668 11.928 1.93475 12.0231 2.1286 12.0617C2.32246 12.1003 2.5234 12.0805 2.706 12.0048C2.88861 11.9292 3.04469 11.8011 3.1545 11.6368C3.26431 11.4724 3.32292 11.2792 3.32292 11.0815Z" fill="white" fill-opacity="0.1"/>
<path d="M13.6495 9.41596H10.3184C9.76643 9.41596 9.31901 9.86339 9.31901 10.4153C9.31901 10.9672 9.76643 11.4147 10.3184 11.4147H13.6495C14.2014 11.4147 14.6489 10.9672 14.6489 10.4153C14.6489 9.86339 14.2014 9.41596 13.6495 9.41596Z" fill="white" fill-opacity="0.1"/>
<path d="M10.3184 13.4134H9.31901V14.4127C9.31901 14.6104 9.37762 14.8036 9.48743 14.9679C9.59724 15.1323 9.75332 15.2603 9.93593 15.336C10.1185 15.4116 10.3195 15.4314 10.5133 15.3929C10.7072 15.3543 10.8852 15.2591 11.025 15.1194C11.1648 14.9796 11.2599 14.8015 11.2985 14.6077C11.3371 14.4138 11.3173 14.2129 11.2416 14.0303C11.166 13.8477 11.0379 13.6916 10.8736 13.5818C10.7092 13.472 10.516 13.4134 10.3184 13.4134Z" fill="white" fill-opacity="0.1"/>
<path d="M5.65473 6.0848H2.32357C1.77164 6.0848 1.32422 6.53222 1.32422 7.08415C1.32422 7.63607 1.77164 8.0835 2.32357 8.0835H5.65473C6.20666 8.0835 6.65408 7.63607 6.65408 7.08415C6.65408 6.53222 6.20666 6.0848 5.65473 6.0848Z" fill="white" fill-opacity="0.1"/>
<path d="M5.65473 4.0861H6.65408V3.08675C6.65408 2.8891 6.59547 2.69589 6.48566 2.53154C6.37585 2.3672 6.21977 2.23911 6.03717 2.16347C5.85456 2.08784 5.65362 2.06804 5.45977 2.10661C5.26591 2.14517 5.08785 2.24034 4.94808 2.38011C4.80832 2.51987 4.71314 2.69793 4.67458 2.89179C4.63602 3.08564 4.65581 3.28658 4.73145 3.46919C4.80709 3.65179 4.93518 3.80787 5.09952 3.91768C5.26386 4.02749 5.45708 4.0861 5.65473 4.0861Z" fill="white" fill-opacity="0.1"/>
<path d="M10.6515 3.08675C10.6515 2.53483 10.2041 2.0874 9.65213 2.0874C9.1002 2.0874 8.65278 2.53483 8.65278 3.08675V6.41791C8.65278 6.96984 9.1002 7.41726 9.65213 7.41726C10.2041 7.41726 10.6515 6.96984 10.6515 6.41791V3.08675Z" stroke="url(#paint0_linear_152_359)" stroke-opacity="0.45" stroke-width="2" stroke-linecap="round" stroke-linejoin="round"/>
<path d="M12.6502 6.41791V7.41726H13.6495C13.8472 7.41726 14.0404 7.35865 14.2047 7.24884C14.3691 7.13903 14.4972 6.98296 14.5728 6.80035C14.6484 6.61774 14.6682 6.41681 14.6297 6.22295C14.5911 6.0291 14.4959 5.85103 14.3562 5.71127C14.2164 5.57151 14.0383 5.47633 13.8445 5.43777C13.6506 5.39921 13.4497 5.419 13.2671 5.49464C13.0845 5.57027 12.9284 5.69836 12.8186 5.86271C12.7088 6.02705 12.6502 6.22026 12.6502 6.41791Z" stroke="url(#paint1_linear_152_359)" stroke-opacity="0.45" stroke-width="2" stroke-linecap="round" stroke-linejoin="round"/>
<path d="M7.32031 11.0815C7.32031 10.5296 6.87289 10.0822 6.32096 10.0822C5.76904 10.0822 5.32161 10.5296 5.32161 11.0815V14.4127C5.32161 14.9646 5.76904 15.4121 6.32096 15.4121C6.87289 15.4121 7.32031 14.9646 7.32031 14.4127V11.0815Z" stroke="url(#paint2_linear_152_359)" stroke-opacity="0.45" stroke-width="2" stroke-linecap="round" stroke-linejoin="round"/>
<path d="M3.32292 11.0815V10.0822H2.32357C2.12592 10.0822 1.9327 10.1408 1.76836 10.2506C1.60402 10.3604 1.47593 10.5165 1.40029 10.6991C1.32465 10.8817 1.30486 11.0827 1.34342 11.2765C1.38198 11.4704 1.47716 11.6484 1.61692 11.7882C1.75668 11.928 1.93475 12.0231 2.1286 12.0617C2.32246 12.1003 2.5234 12.0805 2.706 12.0048C2.88861 11.9292 3.04469 11.8011 3.1545 11.6368C3.26431 11.4724 3.32292 11.2792 3.32292 11.0815Z" stroke="url(#paint3_linear_152_359)" stroke-opacity="0.45" stroke-width="2" stroke-linecap="round" stroke-linejoin="round"/>
<path d="M13.6495 9.41596H10.3184C9.76643 9.41596 9.31901 9.86339 9.31901 10.4153C9.31901 10.9672 9.76643 11.4147 10.3184 11.4147H13.6495C14.2014 11.4147 14.6489 10.9672 14.6489 10.4153C14.6489 9.86339 14.2014 9.41596 13.6495 9.41596Z" stroke="url(#paint4_linear_152_359)" stroke-opacity="0.45" stroke-width="2" stroke-linecap="round" stroke-linejoin="round"/>
<path d="M10.3184 13.4134H9.31901V14.4127C9.31901 14.6104 9.37762 14.8036 9.48743 14.9679C9.59724 15.1323 9.75332 15.2603 9.93593 15.336C10.1185 15.4116 10.3195 15.4314 10.5133 15.3929C10.7072 15.3543 10.8852 15.2591 11.025 15.1194C11.1648 14.9796 11.2599 14.8015 11.2985 14.6077C11.3371 14.4138 11.3173 14.2129 11.2416 14.0303C11.166 13.8477 11.0379 13.6916 10.8736 13.5818C10.7092 13.472 10.516 13.4134 10.3184 13.4134Z" stroke="url(#paint5_linear_152_359)" stroke-opacity="0.45" stroke-width="2" stroke-linecap="round" stroke-linejoin="round"/>
<path d="M5.65473 6.0848H2.32357C1.77164 6.0848 1.32422 6.53222 1.32422 7.08415C1.32422 7.63607 1.77164 8.0835 2.32357 8.0835H5.65473C6.20666 8.0835 6.65408 7.63607 6.65408 7.08415C6.65408 6.53222 6.20666 6.0848 5.65473 6.0848Z" stroke="url(#paint6_linear_152_359)" stroke-opacity="0.45" stroke-width="2" stroke-linecap="round" stroke-linejoin="round"/>
<path d="M5.65473 4.0861H6.65408V3.08675C6.65408 2.8891 6.59547 2.69589 6.48566 2.53154C6.37585 2.3672 6.21977 2.23911 6.03717 2.16347C5.85456 2.08784 5.65362 2.06804 5.45977 2.10661C5.26591 2.14517 5.08785 2.24034 4.94808 2.38011C4.80832 2.51987 4.71314 2.69793 4.67458 2.89179C4.63602 3.08564 4.65581 3.28658 4.73145 3.46919C4.80709 3.65179 4.93518 3.80787 5.09952 3.91768C5.26386 4.02749 5.45708 4.0861 5.65473 4.0861Z" stroke="url(#paint7_linear_152_359)" stroke-opacity="0.45" stroke-width="2" stroke-linecap="round" stroke-linejoin="round"/>
</g>
</g>
<defs>
<filter id="filter0_b_152_359" x="-14.0758" y="-13.3126" width="44.1247" height="44.1247" filterUnits="userSpaceOnUse" color-interpolation-filters="sRGB">
<feFlood flood-opacity="0" result="BackgroundImageFix"/>
<feGaussianBlur in="BackgroundImageFix" stdDeviation="7.2"/>
<feComposite in2="SourceAlpha" operator="in" result="effect1_backgroundBlur_152_359"/>
<feBlend mode="normal" in="SourceGraphic" in2="effect1_backgroundBlur_152_359" result="shape"/>
</filter>
<linearGradient id="paint0_linear_152_359" x1="7.98655" y1="2.0874" x2="7.98655" y2="15.4121" gradientUnits="userSpaceOnUse">
<stop stop-color="#4FABFF"/>
<stop offset="0.505104" stop-color="#C1FBFF"/>
<stop offset="1" stop-color="#B9DDFF"/>
</linearGradient>
<linearGradient id="paint1_linear_152_359" x1="7.98655" y1="2.0874" x2="7.98655" y2="15.4121" gradientUnits="userSpaceOnUse">
<stop stop-color="#4FABFF"/>
<stop offset="0.505104" stop-color="#C1FBFF"/>
<stop offset="1" stop-color="#B9DDFF"/>
</linearGradient>
<linearGradient id="paint2_linear_152_359" x1="7.98655" y1="2.0874" x2="7.98655" y2="15.4121" gradientUnits="userSpaceOnUse">
<stop stop-color="#4FABFF"/>
<stop offset="0.505104" stop-color="#C1FBFF"/>
<stop offset="1" stop-color="#B9DDFF"/>
</linearGradient>
<linearGradient id="paint3_linear_152_359" x1="7.98655" y1="2.0874" x2="7.98655" y2="15.4121" gradientUnits="userSpaceOnUse">
<stop stop-color="#4FABFF"/>
<stop offset="0.505104" stop-color="#C1FBFF"/>
<stop offset="1" stop-color="#B9DDFF"/>
</linearGradient>
<linearGradient id="paint4_linear_152_359" x1="7.98655" y1="2.0874" x2="7.98655" y2="15.4121" gradientUnits="userSpaceOnUse">
<stop stop-color="#4FABFF"/>
<stop offset="0.505104" stop-color="#C1FBFF"/>
<stop offset="1" stop-color="#B9DDFF"/>
</linearGradient>
<linearGradient id="paint5_linear_152_359" x1="7.98655" y1="2.0874" x2="7.98655" y2="15.4121" gradientUnits="userSpaceOnUse">
<stop stop-color="#4FABFF"/>
<stop offset="0.505104" stop-color="#C1FBFF"/>
<stop offset="1" stop-color="#B9DDFF"/>
</linearGradient>
<linearGradient id="paint6_linear_152_359" x1="7.98655" y1="2.0874" x2="7.98655" y2="15.4121" gradientUnits="userSpaceOnUse">
<stop stop-color="#4FABFF"/>
<stop offset="0.505104" stop-color="#C1FBFF"/>
<stop offset="1" stop-color="#B9DDFF"/>
</linearGradient>
<linearGradient id="paint7_linear_152_359" x1="7.98655" y1="2.0874" x2="7.98655" y2="15.4121" gradientUnits="userSpaceOnUse">
<stop stop-color="#4FABFF"/>
<stop offset="0.505104" stop-color="#C1FBFF"/>
<stop offset="1" stop-color="#B9DDFF"/>
</linearGradient>
<clipPath id="clip0_152_359">
<rect width="15.9896" height="15.9896" fill="white" transform="translate(-0.0078125 0.754883)"/>
</clipPath>
</defs>
</svg>
