<svg width="30" height="29" viewBox="0 0 30 29" fill="none" xmlns="http://www.w3.org/2000/svg">
<circle cx="15.1338" cy="14.481" r="14.4805" fill="#1B1B1B"/>
<path d="M23.48 14.283C23.2866 13.5564 22.9104 12.8876 22.387 12.3459C22.8281 11.1296 22.7008 9.77701 22.0431 8.6612C21.0277 6.96439 19.027 6.11772 17.0969 6.57051C16.0212 5.31956 14.3493 4.75703 12.7365 5.09894C11.1224 5.43969 9.82219 6.63173 9.34748 8.20726C8.05533 8.43365 6.92644 9.21449 6.26185 10.3442C5.26148 12.0433 5.51273 14.1998 6.88129 15.6217C6.44131 16.8392 6.56751 18.1918 7.22517 19.3064C8.23711 21.0113 10.2413 21.8603 12.1714 21.3948C13.2424 22.6458 14.9143 23.2164 16.5284 22.8791C18.1447 22.5418 19.4461 21.3521 19.9243 19.7777C21.2176 19.5525 22.3465 18.7693 23.0111 17.6408C23.6143 16.6313 23.7834 15.4196 23.48 14.283ZM19.9648 18.5487V14.0866C19.9648 13.896 19.9208 13.7262 19.7599 13.6408L15.6554 11.3271L17.1374 10.4874L20.6109 12.4579C21.3947 12.8969 21.9679 13.6361 22.1983 14.5048C22.4299 15.356 22.3083 16.2662 21.8567 17.0274C21.4955 17.6489 20.9443 18.1363 20.2855 18.4205C20.1813 18.4655 20.0725 18.5083 19.9648 18.5487ZM9.30811 9.43164V13.8822C9.30811 14.0624 9.34169 14.2483 9.50842 14.328L13.6129 16.6416L12.1309 17.4814L8.64235 15.5074C7.8585 15.0673 7.28537 14.328 7.05381 13.4594C6.82224 12.6093 6.94497 11.6979 7.39421 10.939C7.70335 10.4135 8.14796 9.98492 8.67709 9.695C8.88782 9.57949 9.08117 9.5021 9.30811 9.43164ZM17.4083 9.44897C17.2497 9.35887 17.0587 9.35887 16.9 9.44897L12.7388 11.818V10.0993L16.276 8.12871C17.9062 7.20349 19.9787 7.74869 20.9386 9.35656C21.2766 9.9341 21.4295 10.596 21.3809 11.2555C21.3704 11.3918 21.3531 11.5374 21.3311 11.6713L17.4083 9.44897ZM14.6341 11.937L16.5307 13.0101V14.9864L14.6341 16.0318L12.7422 14.9587V12.9928L14.6341 11.937ZM11.9792 9.3531C11.8148 9.43626 11.7616 9.64071 11.7616 9.80011V14.3939L10.268 13.5749V9.72619C10.2691 9.69731 10.2691 9.67305 10.268 9.64533C10.2818 8.33201 11.0541 7.14112 12.2513 6.5913C13.3304 6.09346 14.5832 6.19626 15.5616 6.83964C15.6982 6.92974 15.8302 7.03139 15.9564 7.13534L11.9792 9.3531ZM7.94302 16.3044L11.86 18.5244C12.0186 18.6134 12.2096 18.6134 12.3683 18.5244L16.5342 16.1611V17.8834L12.9923 19.8401C11.3621 20.7653 9.29074 20.2201 8.3309 18.6122C7.95923 17.9792 7.81103 17.2434 7.90713 16.5204C7.91755 16.4476 7.93029 16.376 7.94302 16.3044ZM17.2937 18.618C17.4581 18.5348 17.5067 18.3546 17.5067 18.1687V13.5749L18.9969 14.3939V18.2437C18.9946 18.2703 18.9946 18.2957 18.9969 18.3234C18.9795 19.6368 18.2107 20.823 17.0158 21.3729C15.9136 21.8799 14.6353 21.7656 13.6477 21.0887C13.5354 21.0125 13.4231 20.9235 13.3119 20.8334L17.2937 18.618Z" fill="white"/>
</svg>
