<svg width="30" height="29" viewBox="0 0 30 29" fill="none" xmlns="http://www.w3.org/2000/svg">
<circle cx="15.1338" cy="14.4805" r="14.4805" fill="#1B1B1B"/>
<path d="M25.4811 14.8452C25.2552 13.9963 24.8156 13.2149 24.2041 12.582C24.7195 11.161 24.5707 9.58065 23.8023 8.27699C22.616 6.29452 20.2784 5.30531 18.0234 5.83433C16.7667 4.37278 14.8133 3.71556 12.9289 4.11502C11.0432 4.51314 9.52401 5.90586 8.96938 7.74662C7.45971 8.01113 6.14077 8.92342 5.36429 10.2433C4.19551 12.2284 4.48906 14.748 6.08802 16.4093C5.57397 17.8317 5.72142 19.412 6.48978 20.7143C7.67209 22.7062 10.0137 23.6981 12.2688 23.1543C13.5201 24.6158 15.4734 25.2825 17.3592 24.8884C19.2476 24.4944 20.7681 23.1044 21.3268 21.2649C22.8378 21.0018 24.1568 20.0868 24.9333 18.7683C25.638 17.5888 25.8355 16.1731 25.4811 14.8452ZM21.3742 19.829V14.6158C21.3742 14.3931 21.3227 14.1947 21.1347 14.0948L16.3392 11.3917L18.0707 10.4106L22.129 12.7129C23.0448 13.2257 23.7144 14.0894 23.9836 15.1043C24.2542 16.0989 24.1121 17.1623 23.5846 18.0517C23.1625 18.7777 22.5186 19.3472 21.7489 19.6792C21.6271 19.7319 21.5 19.7818 21.3742 19.829ZM8.92339 9.17713V14.3769C8.92339 14.5874 8.96262 14.8047 9.15742 14.8978L13.9529 17.6009L12.2214 18.5821L8.14556 16.2757C7.22974 15.7615 6.56013 14.8978 6.28958 13.883C6.01903 12.8897 6.16242 11.8249 6.68729 10.9383C7.04847 10.3242 7.56793 9.82356 8.18614 9.48483C8.43234 9.34987 8.65825 9.25946 8.92339 9.17713ZM18.3873 9.19738C18.2019 9.09211 17.9787 9.09211 17.7934 9.19738L12.9316 11.9653V9.95717L17.0643 7.65486C18.969 6.57388 21.3904 7.21086 22.5118 9.08941C22.9068 9.76418 23.0854 10.5375 23.0286 11.3081C23.0164 11.4673 22.9961 11.6373 22.9704 11.7939L18.3873 9.19738ZM15.1461 12.1043L17.3619 13.358V15.6671L15.1461 16.8884L12.9357 15.6347V13.3378L15.1461 12.1043ZM12.0442 9.08537C11.8521 9.18253 11.7899 9.4214 11.7899 9.60764V14.9747L10.0448 14.0179V9.52127C10.0462 9.48753 10.0462 9.45919 10.0448 9.4268C10.0611 7.89237 10.9633 6.501 12.3621 5.85862C13.6229 5.27697 15.0865 5.39708 16.2296 6.14877C16.3892 6.25404 16.5435 6.3728 16.6909 6.49426L12.0442 9.08537ZM7.32849 17.2069L11.9049 19.8007C12.0902 19.9046 12.3134 19.9046 12.4987 19.8007L17.3659 17.0395V19.0517L13.2279 21.3378C11.3232 22.4188 8.9031 21.7818 7.78167 19.9032C7.34743 19.1637 7.17428 18.304 7.28656 17.4592C7.29873 17.3742 7.31361 17.2905 7.32849 17.2069ZM18.2533 19.91C18.4454 19.8128 18.5023 19.6023 18.5023 19.385V14.0179L20.2432 14.9747V19.4727C20.2405 19.5038 20.2405 19.5335 20.2432 19.5659C20.223 21.1003 19.3247 22.4863 17.9287 23.1286C16.6409 23.7211 15.1474 23.5875 13.9935 22.7967C13.8623 22.7076 13.7311 22.6037 13.6012 22.4984L18.2533 19.91Z" fill="white"/>
</svg>
