<svg width="30" height="29" viewBox="0 0 30 29" fill="none" xmlns="http://www.w3.org/2000/svg">
<circle cx="15.1338" cy="14.481" r="14.4805" fill="#1B1B1B"/>
<path d="M25.4811 14.8457C25.2552 13.9968 24.8156 13.2154 24.2041 12.5825C24.7195 11.1614 24.5707 9.58113 23.8023 8.27748C22.616 6.29501 20.2784 5.3058 18.0234 5.83482C16.7667 4.37327 14.8133 3.71605 12.9289 4.11551C11.0432 4.51362 9.52401 5.90635 8.96938 7.74711C7.45971 8.01162 6.14077 8.92391 5.36429 10.2438C4.19551 12.2289 4.48906 14.7485 6.08802 16.4098C5.57397 17.8322 5.72142 19.4125 6.48978 20.7148C7.67209 22.7067 10.0137 23.6986 12.2688 23.1548C13.5201 24.6163 15.4734 25.283 17.3592 24.8889C19.2476 24.4949 20.7681 23.1048 21.3268 21.2654C22.8378 21.0023 24.1568 20.0873 24.9333 18.7688C25.638 17.5893 25.8355 16.1736 25.4811 14.8457ZM21.3742 19.8295V14.6163C21.3742 14.3936 21.3227 14.1952 21.1347 14.0953L16.3392 11.3922L18.0707 10.4111L22.129 12.7134C23.0448 13.2262 23.7144 14.0899 23.9836 15.1048C24.2542 16.0994 24.1121 17.1628 23.5846 18.0522C23.1625 18.7782 22.5186 19.3477 21.7489 19.6797C21.6271 19.7323 21.5 19.7823 21.3742 19.8295ZM8.92339 9.17762V14.3774C8.92339 14.5879 8.96262 14.8052 9.15742 14.8983L13.9529 17.6014L12.2214 18.5825L8.14556 16.2762C7.22974 15.762 6.56013 14.8983 6.28958 13.8835C6.01903 12.8902 6.16242 11.8254 6.68729 10.9388C7.04847 10.3247 7.56793 9.82405 8.18614 9.48532C8.43234 9.35036 8.65825 9.25994 8.92339 9.17762ZM18.3873 9.19787C18.2019 9.0926 17.9787 9.0926 17.7934 9.19787L12.9316 11.9658V9.95765L17.0643 7.65534C18.969 6.57437 21.3904 7.21135 22.5118 9.0899C22.9068 9.76467 23.0854 10.538 23.0286 11.3085C23.0164 11.4678 22.9961 11.6378 22.9704 11.7944L18.3873 9.19787ZM15.1461 12.1048L17.3619 13.3585V15.6675L15.1461 16.8889L12.9357 15.6352V13.3382L15.1461 12.1048ZM12.0442 9.08585C11.8521 9.18302 11.7899 9.42189 11.7899 9.60812V14.9752L10.0448 14.0184V9.52175C10.0462 9.48802 10.0462 9.45967 10.0448 9.42729C10.0611 7.89286 10.9633 6.50149 12.3621 5.85911C13.6229 5.27746 15.0865 5.39757 16.2296 6.14926C16.3892 6.25453 16.5435 6.37329 16.6909 6.49474L12.0442 9.08585ZM7.32849 17.2074L11.9049 19.8012C12.0902 19.9051 12.3134 19.9051 12.4987 19.8012L17.3659 17.04V19.0522L13.2279 21.3383C11.3232 22.4193 8.9031 21.7823 7.78167 19.9037C7.34743 19.1642 7.17428 18.3045 7.28656 17.4597C7.29873 17.3747 7.31361 17.291 7.32849 17.2074ZM18.2533 19.9105C18.4454 19.8133 18.5023 19.6028 18.5023 19.3855V14.0184L20.2432 14.9752V19.4732C20.2405 19.5043 20.2405 19.534 20.2432 19.5664C20.223 21.1008 19.3247 22.4868 17.9287 23.1291C16.6409 23.7216 15.1474 23.588 13.9935 22.7971C13.8623 22.7081 13.7311 22.6042 13.6012 22.4989L18.2533 19.9105Z" fill="white"/>
</svg>
