<svg width="34" height="42" viewBox="0 0 34 42" fill="none" xmlns="http://www.w3.org/2000/svg">
<path d="M7.2941 2.47891C5.44692 4.55166 5.44692 7.90574 7.32831 9.97849L11.4332 14.5008C15.2986 18.7594 15.2986 25.6937 11.4332 29.9522L3.9076 21.6613C1.9749 19.532 1 16.7243 1 13.9356C1 11.1468 1.9749 8.33914 3.9076 6.20986L7.24279 2.53544C7.25989 2.5166 7.27699 2.49776 7.2941 2.47891Z" fill="black"/>
<path d="M10.5781 13.5568L7.32841 9.97662C5.44703 7.90387 5.42992 4.56863 7.29421 2.47704C9.14139 0.479666 12.0832 0.51735 13.9133 2.53357C14.8369 3.5511 15.2987 4.88896 15.2987 6.20799C15.2987 7.52701 14.8369 8.86487 13.9133 9.8824L13.1436 10.7303" fill="black"/>
<path d="M26.7059 39.5037C28.5531 37.431 28.5531 34.0769 26.6717 32.0042L22.5668 27.4818C18.7014 23.2233 18.7014 16.289 22.5668 12.0304L30.0924 20.3214C32.0251 22.4507 33 25.2583 33 28.0471C33 30.8359 32.0251 33.6435 30.0924 35.7728L26.7572 39.4472C26.723 39.4849 26.7059 39.5037 26.7059 39.5037Z" fill="black"/>
<path d="M23.405 28.4432L26.6546 32.0234C28.536 34.0961 28.5531 37.4314 26.6888 39.523C24.8417 41.5203 21.8999 41.4826 20.0698 39.4664C19.1462 38.4489 18.6844 37.111 18.6844 35.792C18.6844 34.473 19.1462 33.1351 20.0698 32.1176L20.8565 31.2508" fill="black"/>
<path d="M10.5781 13.5568L7.32841 9.97662C5.44703 7.90387 5.42992 4.56863 7.29421 2.47704C9.14139 0.479666 12.0832 0.51735 13.9133 2.53357C14.8369 3.5511 15.2987 4.88896 15.2987 6.20799C15.2987 7.52701 14.8369 8.86487 13.9133 9.8824L13.1436 10.7303M23.405 28.4432L26.6546 32.0234C28.536 34.0961 28.5531 37.4314 26.6888 39.523C24.8417 41.5203 21.8998 41.4826 20.0698 39.4664C19.1462 38.4489 18.6844 37.111 18.6844 35.792C18.6844 34.473 19.1462 33.1351 20.0698 32.1176L20.8565 31.2508M7.2941 2.47891C5.44692 4.55166 5.44692 7.90574 7.32831 9.97849L11.4332 14.5009C15.2986 18.7594 15.2986 25.6937 11.4332 29.9522L3.9076 21.6613C1.9749 19.532 1 16.7243 1 13.9356C1 11.1468 1.9749 8.33914 3.9076 6.20986L7.24279 2.53544C7.25989 2.5166 7.27699 2.49776 7.2941 2.47891ZM26.7059 39.5037C28.5531 37.431 28.5531 34.0769 26.6717 32.0042L22.5668 27.4818C18.7014 23.2233 18.7014 16.289 22.5668 12.0304L30.0924 20.3214C32.0251 22.4507 33 25.2583 33 28.0471C33 30.8359 32.0251 33.6435 30.0924 35.7728L26.7572 39.4472C26.723 39.4849 26.7059 39.5037 26.7059 39.5037Z" stroke="white" stroke-width="2" stroke-miterlimit="10"/>
</svg>
