<svg width="16" height="13" viewBox="0 0 16 13" fill="none" xmlns="http://www.w3.org/2000/svg">
<g filter="url(#filter0_b_71_2433)">
<path d="M13.3172 8.82856V2.83247C13.3172 2.47907 13.1768 2.14016 12.9269 1.89027C12.677 1.64038 12.3381 1.5 11.9847 1.5H3.98992C3.63653 1.5 3.29761 1.64038 3.04772 1.89027C2.79784 2.14016 2.65745 2.47907 2.65745 2.83247V8.82856M13.3172 8.82856H2.65745H13.3172ZM13.3172 8.82856L14.17 10.5275C14.2213 10.6294 14.2456 10.7428 14.2406 10.8568C14.2355 10.9708 14.2012 11.0816 14.1411 11.1786C14.0809 11.2756 13.9968 11.3555 13.8968 11.4106C13.7969 11.4657 13.6845 11.4943 13.5703 11.4935H2.40428C2.29015 11.4943 2.17773 11.4657 2.07779 11.4106C1.97786 11.3555 1.89376 11.2756 1.83357 11.1786C1.77338 11.0816 1.73911 10.9708 1.73405 10.8568C1.72899 10.7428 1.75331 10.6294 1.80467 10.5275L2.65745 8.82856" fill="white" fill-opacity="0.1"/>
<path d="M13.3172 8.82856V2.83247C13.3172 2.47907 13.1768 2.14016 12.9269 1.89027C12.677 1.64038 12.3381 1.5 11.9847 1.5H3.98992C3.63653 1.5 3.29761 1.64038 3.04772 1.89027C2.79784 2.14016 2.65745 2.47907 2.65745 2.83247V8.82856M13.3172 8.82856H2.65745M13.3172 8.82856L14.17 10.5275C14.2213 10.6294 14.2456 10.7428 14.2406 10.8568C14.2355 10.9708 14.2012 11.0816 14.1411 11.1786C14.0809 11.2756 13.9968 11.3555 13.8968 11.4106C13.7969 11.4657 13.6845 11.4943 13.5703 11.4935H2.40428C2.29015 11.4943 2.17773 11.4657 2.07779 11.4106C1.97786 11.3555 1.89376 11.2756 1.83357 11.1786C1.77338 11.0816 1.73911 10.9708 1.73405 10.8568C1.72899 10.7428 1.75331 10.6294 1.80467 10.5275L2.65745 8.82856" stroke="url(#paint0_linear_71_2433)" stroke-opacity="0.45" stroke-width="2" stroke-linecap="round" stroke-linejoin="round"/>
</g>
<defs>
<filter id="filter0_b_71_2433" x="-13.6666" y="-13.9" width="43.3078" height="40.7937" filterUnits="userSpaceOnUse" color-interpolation-filters="sRGB">
<feFlood flood-opacity="0" result="BackgroundImageFix"/>
<feGaussianBlur in="BackgroundImageFix" stdDeviation="7.2"/>
<feComposite in2="SourceAlpha" operator="in" result="effect1_backgroundBlur_71_2433"/>
<feBlend mode="normal" in="SourceGraphic" in2="effect1_backgroundBlur_71_2433" result="shape"/>
</filter>
<linearGradient id="paint0_linear_71_2433" x1="7.98731" y1="1.5" x2="7.98731" y2="11.4935" gradientUnits="userSpaceOnUse">
<stop stop-color="#4FABFF"/>
<stop offset="0.505104" stop-color="#C1FBFF"/>
<stop offset="1" stop-color="#B9DDFF"/>
</linearGradient>
</defs>
</svg>
