<svg width="17" height="16" viewBox="0 0 17 16" fill="none" xmlns="http://www.w3.org/2000/svg">
<g filter="url(#filter0_b_66_864)">
<path d="M8.61545 13.0273C10.029 13.0273 11.3847 12.4658 12.3842 11.4663C13.3838 10.4667 13.9453 9.11105 13.9453 7.69748C13.9453 6.28392 13.3838 4.92824 12.3842 3.9287C11.3847 2.92916 10.029 2.36762 8.61545 2.36762C7.20188 2.36762 5.84621 2.92916 4.84667 3.9287C3.84713 4.92824 3.28559 6.28392 3.28559 7.69748C3.28559 9.11105 3.84713 10.4667 4.84667 11.4663C5.84621 12.4658 7.20188 13.0273 8.61545 13.0273Z" fill="url(#paint0_linear_66_864)" fill-opacity="0.15"/>
<path d="M8.61545 9.02995C8.96884 9.02995 9.30776 8.88956 9.55765 8.63968C9.80753 8.38979 9.94792 8.05087 9.94792 7.69748C9.94792 7.34409 9.80753 7.00517 9.55765 6.75529C9.30776 6.5054 8.96884 6.36502 8.61545 6.36502C8.26206 6.36502 7.92314 6.5054 7.67326 6.75529C7.42337 7.00517 7.28299 7.34409 7.28299 7.69748C7.28299 8.05087 7.42337 8.38979 7.67326 8.63968C7.92314 8.88956 8.26206 9.02995 8.61545 9.02995Z" fill="url(#paint1_linear_66_864)" fill-opacity="0.15"/>
<path d="M8.61545 1.03516V2.36762V1.03516Z" fill="url(#paint2_linear_66_864)" fill-opacity="0.15"/>
<path d="M8.61545 14.3598V13.0273V14.3598Z" fill="url(#paint3_linear_66_864)" fill-opacity="0.15"/>
<path d="M11.9466 13.4671L11.2804 12.3145L11.9466 13.4671Z" fill="url(#paint4_linear_66_864)" fill-opacity="0.15"/>
<path d="M7.94922 6.5449L5.28429 1.92791L7.94922 6.5449Z" fill="url(#paint5_linear_66_864)" fill-opacity="0.15"/>
<path d="M14.385 11.0286L13.2324 10.3624L14.385 11.0286Z" fill="url(#paint6_linear_66_864)" fill-opacity="0.15"/>
<path d="M2.84588 4.36632L3.99846 5.03255L2.84588 4.36632Z" fill="url(#paint7_linear_66_864)" fill-opacity="0.15"/>
<path d="M9.94792 7.69748H15.2778H9.94792Z" fill="url(#paint8_linear_66_864)" fill-opacity="0.15"/>
<path d="M1.95312 7.69748H3.28559H1.95312Z" fill="url(#paint9_linear_66_864)" fill-opacity="0.15"/>
<path d="M14.385 4.36632L13.2324 5.03255L14.385 4.36632Z" fill="url(#paint10_linear_66_864)" fill-opacity="0.15"/>
<path d="M2.84588 11.0286L3.99846 10.3624L2.84588 11.0286Z" fill="url(#paint11_linear_66_864)" fill-opacity="0.15"/>
<path d="M11.9466 1.92791L11.2804 3.08049L11.9466 1.92791Z" fill="url(#paint12_linear_66_864)" fill-opacity="0.15"/>
<path d="M7.94922 8.85006L5.28429 13.4671L7.94922 8.85006Z" fill="url(#paint13_linear_66_864)" fill-opacity="0.15"/>
<path d="M8.61545 13.0273C10.029 13.0273 11.3847 12.4658 12.3842 11.4663C13.3838 10.4667 13.9453 9.11105 13.9453 7.69748C13.9453 6.28392 13.3838 4.92824 12.3842 3.9287C11.3847 2.92916 10.029 2.36762 8.61545 2.36762M8.61545 13.0273C7.20188 13.0273 5.84621 12.4658 4.84667 11.4663C3.84713 10.4667 3.28559 9.11105 3.28559 7.69748M8.61545 13.0273V14.3598M8.61545 2.36762C7.20188 2.36762 5.84621 2.92916 4.84667 3.9287C3.84713 4.92824 3.28559 6.28392 3.28559 7.69748M8.61545 2.36762V1.03516M3.28559 7.69748H1.95312M9.94792 7.69748C9.94792 8.05087 9.80753 8.38979 9.55765 8.63968C9.30776 8.88956 8.96884 9.02995 8.61545 9.02995C8.26206 9.02995 7.92314 8.88956 7.67326 8.63968C7.42337 8.38979 7.28299 8.05087 7.28299 7.69748C7.28299 7.34409 7.42337 7.00517 7.67326 6.75529C7.92314 6.5054 8.26206 6.36502 8.61545 6.36502C8.96884 6.36502 9.30776 6.5054 9.55765 6.75529C9.80753 7.00517 9.94792 7.34409 9.94792 7.69748ZM9.94792 7.69748H15.2778M11.9466 13.4671L11.2804 12.3145M7.94922 6.5449L5.28429 1.92791M14.385 11.0286L13.2324 10.3624M2.84588 4.36632L3.99846 5.03255M14.385 4.36632L13.2324 5.03255M2.84588 11.0286L3.99846 10.3624M11.9466 1.92791L11.2804 3.08049M7.94922 8.85006L5.28429 13.4671" stroke="url(#paint14_linear_66_864)" stroke-opacity="0.42" stroke-width="2" stroke-linecap="round" stroke-linejoin="round"/>
</g>
<defs>
<filter id="filter0_b_66_864" x="-16.4469" y="-17.3648" width="50.1247" height="50.1242" filterUnits="userSpaceOnUse" color-interpolation-filters="sRGB">
<feFlood flood-opacity="0" result="BackgroundImageFix"/>
<feGaussianBlur in="BackgroundImageFix" stdDeviation="8.7"/>
<feComposite in2="SourceAlpha" operator="in" result="effect1_backgroundBlur_66_864"/>
<feBlend mode="normal" in="SourceGraphic" in2="effect1_backgroundBlur_66_864" result="shape"/>
</filter>
<linearGradient id="paint0_linear_66_864" x1="4.95312" y1="1.03516" x2="12.4531" y2="14.0352" gradientUnits="userSpaceOnUse">
<stop stop-color="#4FABFF"/>
<stop offset="0.460102" stop-color="#E4E4A7"/>
<stop offset="1" stop-color="#B9DDFF"/>
</linearGradient>
<linearGradient id="paint1_linear_66_864" x1="4.95312" y1="1.03516" x2="12.4531" y2="14.0352" gradientUnits="userSpaceOnUse">
<stop stop-color="#4FABFF"/>
<stop offset="0.460102" stop-color="#E4E4A7"/>
<stop offset="1" stop-color="#B9DDFF"/>
</linearGradient>
<linearGradient id="paint2_linear_66_864" x1="4.95312" y1="1.03516" x2="12.4531" y2="14.0352" gradientUnits="userSpaceOnUse">
<stop stop-color="#4FABFF"/>
<stop offset="0.460102" stop-color="#E4E4A7"/>
<stop offset="1" stop-color="#B9DDFF"/>
</linearGradient>
<linearGradient id="paint3_linear_66_864" x1="4.95312" y1="1.03516" x2="12.4531" y2="14.0352" gradientUnits="userSpaceOnUse">
<stop stop-color="#4FABFF"/>
<stop offset="0.460102" stop-color="#E4E4A7"/>
<stop offset="1" stop-color="#B9DDFF"/>
</linearGradient>
<linearGradient id="paint4_linear_66_864" x1="4.95312" y1="1.03516" x2="12.4531" y2="14.0352" gradientUnits="userSpaceOnUse">
<stop stop-color="#4FABFF"/>
<stop offset="0.460102" stop-color="#E4E4A7"/>
<stop offset="1" stop-color="#B9DDFF"/>
</linearGradient>
<linearGradient id="paint5_linear_66_864" x1="4.95312" y1="1.03516" x2="12.4531" y2="14.0352" gradientUnits="userSpaceOnUse">
<stop stop-color="#4FABFF"/>
<stop offset="0.460102" stop-color="#E4E4A7"/>
<stop offset="1" stop-color="#B9DDFF"/>
</linearGradient>
<linearGradient id="paint6_linear_66_864" x1="4.95312" y1="1.03516" x2="12.4531" y2="14.0352" gradientUnits="userSpaceOnUse">
<stop stop-color="#4FABFF"/>
<stop offset="0.460102" stop-color="#E4E4A7"/>
<stop offset="1" stop-color="#B9DDFF"/>
</linearGradient>
<linearGradient id="paint7_linear_66_864" x1="4.95312" y1="1.03516" x2="12.4531" y2="14.0352" gradientUnits="userSpaceOnUse">
<stop stop-color="#4FABFF"/>
<stop offset="0.460102" stop-color="#E4E4A7"/>
<stop offset="1" stop-color="#B9DDFF"/>
</linearGradient>
<linearGradient id="paint8_linear_66_864" x1="4.95312" y1="1.03516" x2="12.4531" y2="14.0352" gradientUnits="userSpaceOnUse">
<stop stop-color="#4FABFF"/>
<stop offset="0.460102" stop-color="#E4E4A7"/>
<stop offset="1" stop-color="#B9DDFF"/>
</linearGradient>
<linearGradient id="paint9_linear_66_864" x1="4.95312" y1="1.03516" x2="12.4531" y2="14.0352" gradientUnits="userSpaceOnUse">
<stop stop-color="#4FABFF"/>
<stop offset="0.460102" stop-color="#E4E4A7"/>
<stop offset="1" stop-color="#B9DDFF"/>
</linearGradient>
<linearGradient id="paint10_linear_66_864" x1="4.95312" y1="1.03516" x2="12.4531" y2="14.0352" gradientUnits="userSpaceOnUse">
<stop stop-color="#4FABFF"/>
<stop offset="0.460102" stop-color="#E4E4A7"/>
<stop offset="1" stop-color="#B9DDFF"/>
</linearGradient>
<linearGradient id="paint11_linear_66_864" x1="4.95312" y1="1.03516" x2="12.4531" y2="14.0352" gradientUnits="userSpaceOnUse">
<stop stop-color="#4FABFF"/>
<stop offset="0.460102" stop-color="#E4E4A7"/>
<stop offset="1" stop-color="#B9DDFF"/>
</linearGradient>
<linearGradient id="paint12_linear_66_864" x1="4.95312" y1="1.03516" x2="12.4531" y2="14.0352" gradientUnits="userSpaceOnUse">
<stop stop-color="#4FABFF"/>
<stop offset="0.460102" stop-color="#E4E4A7"/>
<stop offset="1" stop-color="#B9DDFF"/>
</linearGradient>
<linearGradient id="paint13_linear_66_864" x1="4.95312" y1="1.03516" x2="12.4531" y2="14.0352" gradientUnits="userSpaceOnUse">
<stop stop-color="#4FABFF"/>
<stop offset="0.460102" stop-color="#E4E4A7"/>
<stop offset="1" stop-color="#B9DDFF"/>
</linearGradient>
<linearGradient id="paint14_linear_66_864" x1="8.61545" y1="1.03516" x2="12.4531" y2="13.5352" gradientUnits="userSpaceOnUse">
<stop stop-color="#4FABFF"/>
<stop offset="0.485219" stop-color="#8FC7FB"/>
<stop offset="1" stop-color="#B9DDFF"/>
</linearGradient>
</defs>
</svg>
