<svg width="16" height="16" viewBox="0 0 16 16" fill="none" xmlns="http://www.w3.org/2000/svg">
<g filter="url(#filter0_b_66_871)">
<path d="M10.6046 2.14486C10.6046 1.59293 10.1572 1.14551 9.60525 1.14551C9.05333 1.14551 8.6059 1.59293 8.6059 2.14486V5.47602C8.6059 6.02795 9.05333 6.47537 9.60525 6.47537C10.1572 6.47537 10.6046 6.02795 10.6046 5.47602V2.14486Z" fill="white" fill-opacity="0.1"/>
<path d="M12.6033 5.47602V6.47537H13.6026C13.8003 6.47537 13.9935 6.41676 14.1579 6.30695C14.3222 6.19714 14.4503 6.04106 14.5259 5.85845C14.6016 5.67585 14.6214 5.47491 14.5828 5.28106C14.5442 5.0872 14.4491 4.90914 14.3093 4.76937C14.1695 4.62961 13.9915 4.53443 13.7976 4.49587C13.6038 4.45731 13.4028 4.4771 13.2202 4.55274C13.0376 4.62838 12.8815 4.75647 12.7717 4.92081C12.6619 5.08515 12.6033 5.27837 12.6033 5.47602Z" fill="white" fill-opacity="0.1"/>
<path d="M7.27344 10.1396C7.27344 9.58772 6.82601 9.1403 6.27409 9.1403C5.72216 9.1403 5.27474 9.58772 5.27474 10.1396V13.4708C5.27474 14.0227 5.72216 14.4702 6.27409 14.4702C6.82601 14.4702 7.27344 14.0227 7.27344 13.4708V10.1396Z" fill="white" fill-opacity="0.1"/>
<path d="M3.27604 10.1396V9.1403H2.27669C2.07904 9.1403 1.88583 9.19891 1.72148 9.30872C1.55714 9.41853 1.42905 9.57461 1.35342 9.75721C1.27778 9.93982 1.25799 10.1408 1.29655 10.3346C1.33511 10.5285 1.43029 10.7065 1.57005 10.8463C1.70981 10.9861 1.88788 11.0812 2.08173 11.1198C2.27558 11.1584 2.47652 11.1386 2.65913 11.0629C2.84173 10.9873 2.99781 10.8592 3.10762 10.6949C3.21743 10.5305 3.27604 10.3373 3.27604 10.1396Z" fill="white" fill-opacity="0.1"/>
<path d="M13.6026 8.47407H10.2715C9.71956 8.47407 9.27214 8.92149 9.27214 9.47342C9.27214 10.0253 9.71956 10.4728 10.2715 10.4728H13.6026C14.1546 10.4728 14.602 10.0253 14.602 9.47342C14.602 8.92149 14.1546 8.47407 13.6026 8.47407Z" fill="white" fill-opacity="0.1"/>
<path d="M10.2715 12.4715H9.27214V13.4708C9.27214 13.6685 9.33075 13.8617 9.44056 14.026C9.55037 14.1904 9.70644 14.3184 9.88905 14.3941C10.0717 14.4697 10.2726 14.4895 10.4664 14.451C10.6603 14.4124 10.8384 14.3172 10.9781 14.1775C11.1179 14.0377 11.2131 13.8596 11.2516 13.6658C11.2902 13.4719 11.2704 13.271 11.1948 13.0884C11.1191 12.9058 10.991 12.7497 10.8267 12.6399C10.6624 12.5301 10.4691 12.4715 10.2715 12.4715Z" fill="white" fill-opacity="0.1"/>
<path d="M5.60786 5.1429H2.27669C1.72477 5.1429 1.27734 5.59033 1.27734 6.14225C1.27734 6.69418 1.72477 7.1416 2.27669 7.1416H5.60786C6.15978 7.1416 6.60721 6.69418 6.60721 6.14225C6.60721 5.59033 6.15978 5.1429 5.60786 5.1429Z" fill="white" fill-opacity="0.1"/>
<path d="M5.60786 3.14421H6.6072V2.14486C6.6072 1.9472 6.54859 1.75399 6.43878 1.58965C6.32897 1.42531 6.1729 1.29722 5.99029 1.22158C5.80768 1.14594 5.60675 1.12615 5.41289 1.16471C5.21904 1.20327 5.04097 1.29845 4.90121 1.43821C4.76145 1.57797 4.66627 1.75604 4.62771 1.94989C4.58915 2.14375 4.60894 2.34468 4.68458 2.52729C4.76022 2.7099 4.88831 2.86598 5.05265 2.97579C5.21699 3.0856 5.4102 3.14421 5.60786 3.14421Z" fill="white" fill-opacity="0.1"/>
<path d="M10.6046 2.14486C10.6046 1.59293 10.1572 1.14551 9.60525 1.14551C9.05333 1.14551 8.6059 1.59293 8.6059 2.14486V5.47602C8.6059 6.02795 9.05333 6.47537 9.60525 6.47537C10.1572 6.47537 10.6046 6.02795 10.6046 5.47602V2.14486Z" stroke="url(#paint0_linear_66_871)" stroke-opacity="0.45" stroke-width="2" stroke-linecap="round" stroke-linejoin="round"/>
<path d="M12.6033 5.47602V6.47537H13.6026C13.8003 6.47537 13.9935 6.41676 14.1579 6.30695C14.3222 6.19714 14.4503 6.04106 14.5259 5.85845C14.6016 5.67585 14.6214 5.47491 14.5828 5.28106C14.5442 5.0872 14.4491 4.90914 14.3093 4.76937C14.1695 4.62961 13.9915 4.53443 13.7976 4.49587C13.6038 4.45731 13.4028 4.4771 13.2202 4.55274C13.0376 4.62838 12.8815 4.75647 12.7717 4.92081C12.6619 5.08515 12.6033 5.27837 12.6033 5.47602Z" stroke="url(#paint1_linear_66_871)" stroke-opacity="0.45" stroke-width="2" stroke-linecap="round" stroke-linejoin="round"/>
<path d="M7.27344 10.1396C7.27344 9.58772 6.82601 9.1403 6.27409 9.1403C5.72216 9.1403 5.27474 9.58772 5.27474 10.1396V13.4708C5.27474 14.0227 5.72216 14.4702 6.27409 14.4702C6.82601 14.4702 7.27344 14.0227 7.27344 13.4708V10.1396Z" stroke="url(#paint2_linear_66_871)" stroke-opacity="0.45" stroke-width="2" stroke-linecap="round" stroke-linejoin="round"/>
<path d="M3.27604 10.1396V9.1403H2.27669C2.07904 9.1403 1.88583 9.19891 1.72148 9.30872C1.55714 9.41853 1.42905 9.57461 1.35342 9.75721C1.27778 9.93982 1.25799 10.1408 1.29655 10.3346C1.33511 10.5285 1.43029 10.7065 1.57005 10.8463C1.70981 10.9861 1.88788 11.0812 2.08173 11.1198C2.27558 11.1584 2.47652 11.1386 2.65913 11.0629C2.84173 10.9873 2.99781 10.8592 3.10762 10.6949C3.21743 10.5305 3.27604 10.3373 3.27604 10.1396Z" stroke="url(#paint3_linear_66_871)" stroke-opacity="0.45" stroke-width="2" stroke-linecap="round" stroke-linejoin="round"/>
<path d="M13.6026 8.47407H10.2715C9.71956 8.47407 9.27214 8.92149 9.27214 9.47342C9.27214 10.0253 9.71956 10.4728 10.2715 10.4728H13.6026C14.1546 10.4728 14.602 10.0253 14.602 9.47342C14.602 8.92149 14.1546 8.47407 13.6026 8.47407Z" stroke="url(#paint4_linear_66_871)" stroke-opacity="0.45" stroke-width="2" stroke-linecap="round" stroke-linejoin="round"/>
<path d="M10.2715 12.4715H9.27214V13.4708C9.27214 13.6685 9.33075 13.8617 9.44056 14.026C9.55037 14.1904 9.70644 14.3184 9.88905 14.3941C10.0717 14.4697 10.2726 14.4895 10.4664 14.451C10.6603 14.4124 10.8384 14.3172 10.9781 14.1775C11.1179 14.0377 11.2131 13.8596 11.2516 13.6658C11.2902 13.4719 11.2704 13.271 11.1948 13.0884C11.1191 12.9058 10.991 12.7497 10.8267 12.6399C10.6624 12.5301 10.4691 12.4715 10.2715 12.4715Z" stroke="url(#paint5_linear_66_871)" stroke-opacity="0.45" stroke-width="2" stroke-linecap="round" stroke-linejoin="round"/>
<path d="M5.60786 5.1429H2.27669C1.72477 5.1429 1.27734 5.59033 1.27734 6.14225C1.27734 6.69418 1.72477 7.1416 2.27669 7.1416H5.60786C6.15978 7.1416 6.60721 6.69418 6.60721 6.14225C6.60721 5.59033 6.15978 5.1429 5.60786 5.1429Z" stroke="url(#paint6_linear_66_871)" stroke-opacity="0.45" stroke-width="2" stroke-linecap="round" stroke-linejoin="round"/>
<path d="M5.60786 3.14421H6.6072V2.14486C6.6072 1.9472 6.54859 1.75399 6.43878 1.58965C6.32897 1.42531 6.1729 1.29722 5.99029 1.22158C5.80768 1.14594 5.60675 1.12615 5.41289 1.16471C5.21904 1.20327 5.04097 1.29845 4.90121 1.43821C4.76145 1.57797 4.66627 1.75604 4.62771 1.94989C4.58915 2.14375 4.60894 2.34468 4.68458 2.52729C4.76022 2.7099 4.88831 2.86598 5.05265 2.97579C5.21699 3.0856 5.4102 3.14421 5.60786 3.14421Z" stroke="url(#paint7_linear_66_871)" stroke-opacity="0.45" stroke-width="2" stroke-linecap="round" stroke-linejoin="round"/>
</g>
<defs>
<filter id="filter0_b_66_871" x="-14.1227" y="-14.2545" width="44.1247" height="44.1242" filterUnits="userSpaceOnUse" color-interpolation-filters="sRGB">
<feFlood flood-opacity="0" result="BackgroundImageFix"/>
<feGaussianBlur in="BackgroundImageFix" stdDeviation="7.2"/>
<feComposite in2="SourceAlpha" operator="in" result="effect1_backgroundBlur_66_871"/>
<feBlend mode="normal" in="SourceGraphic" in2="effect1_backgroundBlur_66_871" result="shape"/>
</filter>
<linearGradient id="paint0_linear_66_871" x1="7.93967" y1="1.14551" x2="7.93967" y2="14.4702" gradientUnits="userSpaceOnUse">
<stop stop-color="#4FABFF"/>
<stop offset="0.505104" stop-color="#C1FBFF"/>
<stop offset="1" stop-color="#B9DDFF"/>
</linearGradient>
<linearGradient id="paint1_linear_66_871" x1="7.93967" y1="1.14551" x2="7.93967" y2="14.4702" gradientUnits="userSpaceOnUse">
<stop stop-color="#4FABFF"/>
<stop offset="0.505104" stop-color="#C1FBFF"/>
<stop offset="1" stop-color="#B9DDFF"/>
</linearGradient>
<linearGradient id="paint2_linear_66_871" x1="7.93967" y1="1.14551" x2="7.93967" y2="14.4702" gradientUnits="userSpaceOnUse">
<stop stop-color="#4FABFF"/>
<stop offset="0.505104" stop-color="#C1FBFF"/>
<stop offset="1" stop-color="#B9DDFF"/>
</linearGradient>
<linearGradient id="paint3_linear_66_871" x1="7.93967" y1="1.14551" x2="7.93967" y2="14.4702" gradientUnits="userSpaceOnUse">
<stop stop-color="#4FABFF"/>
<stop offset="0.505104" stop-color="#C1FBFF"/>
<stop offset="1" stop-color="#B9DDFF"/>
</linearGradient>
<linearGradient id="paint4_linear_66_871" x1="7.93967" y1="1.14551" x2="7.93967" y2="14.4702" gradientUnits="userSpaceOnUse">
<stop stop-color="#4FABFF"/>
<stop offset="0.505104" stop-color="#C1FBFF"/>
<stop offset="1" stop-color="#B9DDFF"/>
</linearGradient>
<linearGradient id="paint5_linear_66_871" x1="7.93967" y1="1.14551" x2="7.93967" y2="14.4702" gradientUnits="userSpaceOnUse">
<stop stop-color="#4FABFF"/>
<stop offset="0.505104" stop-color="#C1FBFF"/>
<stop offset="1" stop-color="#B9DDFF"/>
</linearGradient>
<linearGradient id="paint6_linear_66_871" x1="7.93967" y1="1.14551" x2="7.93967" y2="14.4702" gradientUnits="userSpaceOnUse">
<stop stop-color="#4FABFF"/>
<stop offset="0.505104" stop-color="#C1FBFF"/>
<stop offset="1" stop-color="#B9DDFF"/>
</linearGradient>
<linearGradient id="paint7_linear_66_871" x1="7.93967" y1="1.14551" x2="7.93967" y2="14.4702" gradientUnits="userSpaceOnUse">
<stop stop-color="#4FABFF"/>
<stop offset="0.505104" stop-color="#C1FBFF"/>
<stop offset="1" stop-color="#B9DDFF"/>
</linearGradient>
</defs>
</svg>
