<svg width="7" height="11" viewBox="0 0 7 11" fill="none" xmlns="http://www.w3.org/2000/svg">
<path fill-rule="evenodd" clip-rule="evenodd" d="M1.05863 10.7699C0.920796 10.6266 0.845481 10.4345 0.849231 10.2357C0.852981 10.037 0.93549 9.84784 1.07863 9.70989L5.01663 5.99989L1.07863 2.28989C1.00428 2.22245 0.94423 2.14077 0.902029 2.0497C0.859828 1.95863 0.836337 1.86002 0.832947 1.7597C0.829558 1.65939 0.846339 1.55941 0.882296 1.4657C0.918254 1.37199 0.972656 1.28644 1.04228 1.21414C1.1119 1.14184 1.19533 1.08425 1.28762 1.04479C1.37991 1.00532 1.47918 0.984778 1.57955 0.984381C1.67992 0.983984 1.77936 1.00374 1.87195 1.04247C1.96455 1.08121 2.04843 1.13814 2.11863 1.20989L6.61863 5.45989C6.69121 5.52985 6.74895 5.61373 6.78838 5.70651C6.82782 5.79929 6.84815 5.89907 6.84815 5.99989C6.84815 6.1007 6.82782 6.20048 6.78838 6.29326C6.74895 6.38604 6.69121 6.46992 6.61863 6.53989L2.11863 10.7899C1.97537 10.9277 1.78325 11.003 1.58449 10.9993C1.38573 10.9955 1.19658 10.913 1.05863 10.7699Z" fill="#FAFAFA"/>
</svg>
