<svg width="41" height="50" viewBox="0 0 41 50" fill="none" xmlns="http://www.w3.org/2000/svg">
<path d="M8.67093 2.7747C6.41968 5.26199 6.41968 9.28689 8.71263 11.7742L13.7154 17.201C18.4264 22.3113 18.4264 30.6324 13.7154 35.7427L4.54364 25.7935C2.18816 23.2384 1 19.8692 1 16.5227C1 13.1761 2.18816 9.80696 4.54364 7.25183L8.6084 2.84253C8.62924 2.81992 8.65009 2.79731 8.67093 2.7747Z" fill="black"/>
<path d="M12.6733 16.0682L8.71276 11.7719C6.41981 9.28464 6.39897 5.28236 8.67106 2.77245C10.9223 0.3756 14.5076 0.42082 16.7381 2.84028C17.8637 4.06132 18.4265 5.66676 18.4265 7.24958C18.4265 8.83241 17.8637 10.4378 16.7381 11.6589L15.8 12.6764" fill="black"/>
<path d="M32.3291 47.2045C34.5803 44.7172 34.5803 40.6923 32.2874 38.205L27.2846 32.7782C22.5736 27.6679 22.5736 19.3468 27.2846 14.2365L36.4564 24.1857C38.8118 26.7408 40 30.11 40 33.4565C40 36.8031 38.8118 40.1722 36.4564 42.7274L32.3916 47.1367C32.3499 47.1819 32.3291 47.2045 32.3291 47.2045Z" fill="black"/>
<path d="M28.306 33.9318L32.2666 38.2281C34.5595 40.7154 34.5804 44.7176 32.3083 47.2275C30.057 49.6244 26.4717 49.5792 24.2413 47.1597C23.1157 45.9387 22.5529 44.3332 22.5529 42.7504C22.5529 41.1676 23.1157 39.5622 24.2413 38.3411L25.2001 37.301" fill="black"/>
<path d="M12.6733 16.0682L8.71276 11.7719C6.41981 9.28464 6.39897 5.28236 8.67106 2.77245C10.9223 0.3756 14.5076 0.42082 16.7381 2.84028C17.8637 4.06132 18.4265 5.66676 18.4265 7.24958C18.4265 8.83241 17.8637 10.4378 16.7381 11.6589L15.8 12.6764M28.306 33.9318L32.2666 38.2281C34.5595 40.7154 34.5804 44.7176 32.3083 47.2275C30.057 49.6244 26.4717 49.5792 24.2413 47.1597C23.1157 45.9387 22.5529 44.3332 22.5529 42.7504C22.5529 41.1676 23.1157 39.5622 24.2413 38.3411L25.2001 37.301M8.67093 2.7747C6.41968 5.26199 6.41968 9.28689 8.71263 11.7742L13.7154 17.201C18.4264 22.3113 18.4264 30.6324 13.7154 35.7427L4.54364 25.7935C2.18816 23.2384 1 19.8692 1 16.5227C1 13.1761 2.18816 9.80696 4.54364 7.25183L8.6084 2.84253C8.62924 2.81992 8.65009 2.79731 8.67093 2.7747ZM32.3291 47.2045C34.5803 44.7172 34.5803 40.6923 32.2874 38.205L27.2846 32.7782C22.5736 27.6679 22.5736 19.3468 27.2846 14.2365L36.4564 24.1857C38.8118 26.7408 40 30.11 40 33.4565C40 36.8031 38.8118 40.1722 36.4564 42.7274L32.3916 47.1367C32.3499 47.1819 32.3291 47.2045 32.3291 47.2045Z" stroke="white" stroke-width="2" stroke-miterlimit="10"/>
</svg>
