<svg width="35" height="42" viewBox="0 0 35 42" fill="none" xmlns="http://www.w3.org/2000/svg">
<path d="M7.87491 2.47891C6.02773 4.55166 6.02773 7.90574 7.90912 9.97849L12.014 14.5008C15.8794 18.7594 15.8794 25.6937 12.014 29.9522L4.48841 21.6613C2.55571 19.532 1.58081 16.7243 1.58081 13.9356C1.58081 11.1468 2.55571 8.33914 4.48841 6.20986L7.8236 2.53544C7.8407 2.5166 7.8578 2.49776 7.87491 2.47891Z" fill="black"/>
<path d="M11.1589 13.5568L7.90922 9.97662C6.02784 7.90387 6.01073 4.56863 7.87502 2.47704C9.7222 0.479666 12.664 0.51735 14.4941 2.53357C15.4177 3.5511 15.8795 4.88896 15.8795 6.20799C15.8795 7.52701 15.4177 8.86487 14.4941 9.8824L13.7244 10.7303" fill="black"/>
<path d="M27.2867 39.5037C29.1339 37.431 29.1339 34.0769 27.2525 32.0042L23.1477 27.4818C19.2823 23.2233 19.2823 16.289 23.1477 12.0304L30.6732 20.3214C32.6059 22.4507 33.5808 25.2583 33.5808 28.0471C33.5808 30.8359 32.6059 33.6435 30.6732 35.7728L27.338 39.4472C27.3038 39.4849 27.2867 39.5037 27.2867 39.5037Z" fill="black"/>
<path d="M23.9858 28.4432L27.2354 32.0234C29.1168 34.0961 29.1339 37.4314 27.2697 39.523C25.4225 41.5203 22.4807 41.4826 20.6506 39.4664C19.727 38.4489 19.2652 37.111 19.2652 35.792C19.2652 34.473 19.727 33.1351 20.6506 32.1176L21.4373 31.2508" fill="black"/>
<path d="M11.1589 13.5568L7.90923 9.97662C6.02784 7.90387 6.01073 4.56863 7.87502 2.47704C9.7222 0.479666 12.664 0.51735 14.4941 2.53357C15.4177 3.5511 15.8795 4.88896 15.8795 6.20799C15.8795 7.52701 15.4177 8.86487 14.4941 9.8824L13.7244 10.7303M23.9858 28.4432L27.2354 32.0234C29.1168 34.0961 29.1339 37.4314 27.2697 39.523C25.4225 41.5203 22.4807 41.4826 20.6506 39.4664C19.727 38.4489 19.2652 37.111 19.2652 35.792C19.2652 34.473 19.727 33.1351 20.6506 32.1176L21.4373 31.2508M7.87491 2.47891C6.02773 4.55166 6.02773 7.90574 7.90912 9.97849L12.014 14.5009C15.8794 18.7594 15.8794 25.6937 12.014 29.9522L4.48841 21.6613C2.55571 19.532 1.58081 16.7243 1.58081 13.9356C1.58081 11.1468 2.55571 8.33914 4.48841 6.20986L7.8236 2.53544C7.8407 2.5166 7.8578 2.49776 7.87491 2.47891ZM27.2867 39.5037C29.1339 37.431 29.1339 34.0769 27.2525 32.0042L23.1477 27.4818C19.2823 23.2233 19.2823 16.289 23.1477 12.0304L30.6732 20.3214C32.6059 22.4507 33.5808 25.2583 33.5808 28.0471C33.5808 30.8359 32.6059 33.6435 30.6732 35.7728L27.338 39.4472C27.3038 39.4849 27.2867 39.5037 27.2867 39.5037Z" stroke="white" stroke-width="2" stroke-miterlimit="10"/>
</svg>
